<?xml version="1.0" encoding="utf-8"?>
<!-- Generator: Adobe Illustrator 19.2.1, SVG Export Plug-In . SVG Version: 6.00 Build 0)  -->
<svg version="1.1" id="Слой_1" xmlns="http://www.w3.org/2000/svg" xmlns:xlink="http://www.w3.org/1999/xlink" x="0px" y="0px"
	 viewBox="0 0 85 26.9" style="enable-background:new 0 0 85 26.9;" xml:space="preserve">
<style type="text/css">
	.st0{fill:none;stroke:#FFFFFF;stroke-width:0.25;stroke-miterlimit:10;}
	<defs>
		<style>
			.st0{
						stroke-dasharray: 2800;
						stroke-dashoffset:0;
						-webkit-animation: dash 35s linear forwards;
						-o-animation: dash 35s linear forwards;
						-moz-animation: dash 35s linear forwards;						
						animation: dash 35s linear forwards; 
					}

					@-webkit-keyframes dash {
						from {
							stroke-dashoffset:2800;
						}
						to{
							stroke-dashoffset:0;
						}
					}
		</style>
	</defs>
</style>
<path class="st0" d="M87.2-2.1l-2.5,2.6c-1.7,1.8-3.8,3-6.2,3.5l-5.7,1.2c-0.8,0.2-1.5,0.4-2.2,0.7l-8.2,3.5c-1,0.4-2.1,0.7-3.2,0.9
	l-11.6,1.5c-1.5,0.2-2.9,0.7-4.2,1.4l-7.6,4.2c-0.6,0.3-1.2,0.6-1.8,0.8L22.8,22c-0.2,0.1-0.5,0.2-0.7,0.2l-10.4,3
	c-1.2,0.3-2.4,0.5-3.7,0.4l-2.4-0.1c-1.8-0.1-3.5,0.3-5.2,1l-0.9,0.4"/>
</svg>
