<?xml version="1.0" encoding="utf-8"?>
<!-- Generator: Adobe Illustrator 19.2.1, SVG Export Plug-In . SVG Version: 6.00 Build 0)  -->
<svg version="1.1" id="Слой_1" xmlns="http://www.w3.org/2000/svg" xmlns:xlink="http://www.w3.org/1999/xlink" x="0px" y="0px"
	 viewBox="0 0 85 34.2" style="enable-background:new 0 0 85 34.2;" xml:space="preserve">
<style type="text/css">
	.st0{fill:none;stroke:#FFFFFF;stroke-width:0.15;stroke-miterlimit:10;}
	<defs>
		<style>
			.st0{
						stroke-dasharray: 2800;
						stroke-dashoffset:0;
						-webkit-animation: dash 70s linear forwards;
						-o-animation: dash 70s linear forwards;
						-moz-animation: dash 70s linear forwards;						
						animation: dash 70s linear forwards; 
					}

					@-webkit-keyframes dash {
						from {
							stroke-dashoffset:2800;
						}
						to{
							stroke-dashoffset:0;
						}
					}
		</style>
	</defs>
</style>
<path class="st0" d="M89.6,1.8l-7.7,14c-0.2,0.4-0.8,0.4-1.1,0l-1.7-2.7c-0.3-0.4-0.9-0.4-1.1,0.1l-5.7,11.5
	c-0.1,0.2-0.3,0.3-0.5,0.4l-30.5,0.9c-0.1,0-0.2,0-0.3,0.1l-9,6.1c-0.2,0.1-0.5,0.1-0.7,0l-4.4-3.1c-0.1-0.1-0.3-0.1-0.4-0.1
	l-15.8,1.3c-0.1,0-0.2,0-0.3,0.1l-5.6,3.1l0,0l-4.8,0.9"/>
</svg>
